0
SECTION
2
HEADER
9
$INSUNITS
70
1
9
$ACADVER
1
AC1014
9
$HANDSEED
5
FFFF
0
ENDSEC
0
SECTION
2
TABLES
0
TABLE
2
VPORT
5
8
100
AcDbSymbolTable
0
ENDTAB
0
TABLE
2
LTYPE
5
5
100
AcDbSymbolTable
0
LTYPE
5
14
100
AcDbSymbolTableRecord
100
AcDbLinetypeTableRecord
2
BYBLOCK
70
0
0
LTYPE
5
15
100
AcDbSymbolTableRecord
100
AcDbLinetypeTableRecord
2
BYLAYER
70
0
0
ENDTAB
0
TABLE
2
LAYER
5
2
100
AcDbSymbolTable
70
2
0
LAYER
5
50
100
AcDbSymbolTableRecord
100
AcDbLayerTableRecord
2
0
70
0
6
CONTINUOUS
0
ENDTAB
0
TABLE
2
STYLE
5
3
100
AcDbSymbolTable
70
1
0
STYLE
5
11
100
AcDbSymbolTableRecord
100
AcDbTextStyleTableRecord
2
STANDARD
70
0
0
ENDTAB
0
TABLE
2
VIEW
5
6
100
AcDbSymbolTable
70
0
0
ENDTAB
0
TABLE
2
UCS
5
7
100
AcDbSymbolTable
70
0
0
ENDTAB
0
TABLE
2
APPID
5
9
100
AcDbSymbolTable
70
2
0
APPID
5
12
100
AcDbSymbolTableRecord
100
AcDbRegAppTableRecord
2
ACAD
70
0
0
ENDTAB
0
TABLE
2
DIMSTYLE
5
A
100
AcDbSymbolTable
70
1
0
ENDTAB
0
TABLE
2
BLOCK_RECORD
5
1
100
AcDbSymbolTable
70
1
0
BLOCK_RECORD
5
1F
100
AcDbSymbolTableRecord
100
AcDbBlockTableRecord
2
*MODEL_SPACE
0
BLOCK_RECORD
5
1B
100
AcDbSymbolTableRecord
100
AcDbBlockTableRecord
2
*PAPER_SPACE
0
ENDTAB
0
ENDSEC
0
SECTION
2
BLOCKS
0
BLOCK
5
20
100
AcDbEntity
100
AcDbBlockBegin
2
*MODEL_SPACE
0
ENDBLK
5
21
100
AcDbEntity
100
AcDbBlockEnd
0
BLOCK
5
1C
100
AcDbEntity
100
AcDbBlockBegin
2
*PAPER_SPACE
0
ENDBLK
5
1D
100
AcDbEntity
100
AcDbBlockEnd
0
ENDSEC
0
SECTION
2
ENTITIES
0
LWPOLYLINE
5
100
100
AcDbEntity
8
0
100
AcDbPolyline
90
8
70
1
43
0.0
10
-41
20
-8.7419135797256413e-16
42
-0.41421356237309132
10
-42
20
0.99999999999999678
10
-42
20
92.999999999999986
42
-0.41421356237309825
10
-40.999999999999993
20
93.999999999999986
10
-0.99999999999999711
20
94
42
-0.4142135623731002
10
0
20
93
10
2.4477358023231794e-15
20
1.0000000000000082
42
-0.41421356237309748
10
-1.0000000000000024
20
0
0
ARC
5
101
100
AcDbEntity
8
0
100
AcDbCircle
10
-14.55161165235168
20
87.771611652351652
30
0
40
0.12499999999999674
210
0
220
-0
230
1
100
AcDbArc
50
45.000000000002878
51
225.0000000000029
0
LINE
5
102
100
AcDbEntity
8
0
100
AcDbLine
10
-14.463223304703369
20
87.859999999999971
30
0
11
-11.816776695296635
21
87.859999999999971
31
0
0
ARC
5
103
100
AcDbEntity
8
0
100
AcDbCircle
10
-11.728388347648321
20
87.771611652351652
30
0
40
0.12500000000000266
210
-0
220
0
230
1
100
AcDbArc
50
-45
51
134.99999999999827
0
LINE
5
104
100
AcDbEntity
8
0
100
AcDbLine
10
-11.640000000000002
20
87.683223304703333
30
0
11
-11.640000000000001
21
87.31677669529661
31
0
0
ARC
5
105
100
AcDbEntity
8
0
100
AcDbCircle
10
-11.728388347648321
20
87.228388347648291
30
0
40
0.12499999999999772
210
0
220
0
230
1
100
AcDbArc
50
-134.99999999999773
51
44.999999999999424
0
LINE
5
106
100
AcDbEntity
8
0
100
AcDbLine
10
-11.816776695296634
20
87.139999999999972
30
0
11
-14.463223304703368
21
87.139999999999972
31
0
0
ARC
5
107
100
AcDbEntity
8
0
100
AcDbCircle
10
-14.551611652351685
20
87.228388347648291
30
0
40
0.12500000000000069
210
0
220
0
230
1
100
AcDbArc
50
134.99999999999943
51
314.99999999999943
0
LINE
5
108
100
AcDbEntity
8
0
100
AcDbLine
10
-14.640000000000002
20
87.31677669529661
30
0
11
-14.63999999999999
21
87.683223304703333
31
0
0
ARC
5
109
100
AcDbEntity
8
0
100
AcDbCircle
10
-30.271611652351726
20
87.771611652351666
30
0
40
0.12500000000000069
210
0
220
-0
230
1
100
AcDbArc
50
45.000000000009209
51
225.00000000000918
0
LINE
5
110
100
AcDbEntity
8
0
100
AcDbLine
10
-30.183223304703422
20
87.859999999999999
30
0
11
-27.536776695296659
21
87.859999999999971
31
0
0
ARC
5
111
100
AcDbEntity
8
0
100
AcDbCircle
10
-27.448388347648347
20
87.771611652351652
30
0
40
0.12499999999999674
210
-0
220
0
230
1
100
AcDbArc
50
-45.000000000002288
51
134.99999999999773
0
LINE
5
112
100
AcDbEntity
8
0
100
AcDbLine
10
-27.360000000000035
20
87.683223304703333
30
0
11
-27.360000000000031
21
87.316776695296625
31
0
0
ARC
5
113
100
AcDbEntity
8
0
100
AcDbCircle
10
-27.448388347648347
20
87.228388347648306
30
0
40
0.12500000000000069
210
0
220
0
230
1
100
AcDbArc
50
-134.99999999999082
51
45.000000000001151
0
LINE
5
114
100
AcDbEntity
8
0
100
AcDbLine
10
-27.536776695296652
20
87.139999999999972
30
0
11
-30.1832233047034
21
87.139999999999972
31
0
0
ARC
5
115
100
AcDbEntity
8
0
100
AcDbCircle
10
-30.271611652351712
20
87.228388347648291
30
0
40
0.12500000000000464
210
0
220
0
230
1
100
AcDbArc
50
135
51
314.99999999999773
0
LINE
5
116
100
AcDbEntity
8
0
100
AcDbLine
10
-30.360000000000031
20
87.31677669529661
30
0
11
-30.360000000000031
21
87.683223304703333
31
0
0
LWPOLYLINE
5
117
100
AcDbEntity
8
0
100
AcDbPolyline
90
7
70
1
43
0.0
10
-1.7200000000000208
20
77.823223304703376
42
-0.99999999999999989
10
-1.5432233047033677
20
78
10
-1.1767766952966454
20
78
42
-0.99999999999999989
10
-1.0000000000000124
20
77.823223304703362
10
-1.000000000000002
20
70.176776695296638
42
-0.99999999999999989
10
-1.1767766952966545
20
70.000000000000014
10
-1.7200000000000109
20
70.000000000000014
0
ARC
5
118
100
AcDbEntity
8
0
100
AcDbCircle
10
-4.6316116523516913
20
77.911610480909204
30
0
40
0.1249999999999982
210
0
220
-0
230
1
100
AcDbArc
50
45.000000000002011
51
225.00000000000227
0
LINE
5
119
100
AcDbEntity
8
0
100
AcDbLine
10
-4.5432233047033783
20
77.999998828557523
30
0
11
-4.1767766952966445
21
77.999998828557523
31
0
0
ARC
5
120
100
AcDbEntity
8
0
100
AcDbCircle
10
-4.0883883476483316
20
77.911610480909204
30
0
40
0.12500000000000314
210
-0
220
0
230
1
100
AcDbArc
50
-45
51
134.99999999999798
0
LINE
5
121
100
AcDbEntity
8
0
100
AcDbLine
10
-4.0000000000000124
20
77.823222133260884
30
0
11
-4.0000000000000098
21
70.17677786673913
31
0
0
ARC
5
122
100
AcDbEntity
8
0
100
AcDbCircle
10
-4.0883883476483316
20
70.088389519090811
30
0
40
0.12499999999999772
210
0
220
0
230
1
100
AcDbArc
50
-134.99999999999741
51
44.999999999999133
0
LINE
5
123
100
AcDbEntity
8
0
100
AcDbLine
10
-4.1767766952966427
20
70.000001171442491
30
0
11
-4.5432233047033774
21
70.000001171442491
31
0
0
ARC
5
124
100
AcDbEntity
8
0
100
AcDbCircle
10
-4.6316116523516913
20
70.088389519090811
30
0
40
0.12500000000000216
210
0
220
0
230
1
100
AcDbArc
50
134.99999999999972
51
314.99999999999829
0
LINE
5
125
100
AcDbEntity
8
0
100
AcDbLine
10
-4.7200000000000095
20
70.17677786673913
30
0
11
-4.7200000000000033
21
77.823222133260884
31
0
0
LWPOLYLINE
5
126
100
AcDbEntity
8
0
100
AcDbPolyline
90
8
70
1
43
0.0
10
-7.7200000000000184
20
77.823223304703376
42
-0.99999999999999989
10
-7.5432233047033668
20
78
10
-7.1767766952966534
20
77.999999999999986
42
-0.99999999999999989
10
-7.0000000000000124
20
77.823223304703362
10
-7.0000000000000044
20
70.176776695296638
42
-0.99999999999999989
10
-7.1767766952966561
20
70.000000000000014
10
-7.543223304703381
20
70.000000000000014
42
-0.99999999999999989
10
-7.7200000000000104
20
70.176776695296653
0
ARC
5
127
100
AcDbEntity
8
0
100
AcDbCircle
10
-15.271611652351686
20
77.911611652351667
30
0
40
0.12500000000000464
210
0
220
-0
230
1
100
AcDbArc
50
45.000000000007482
51
225.0000000000029
0
LINE
5
128
100
AcDbEntity
8
0
100
AcDbLine
10
-15.183223304703375
20
78
30
0
11
-14.816776695296642
21
78
31
0
0
ARC
5
129
100
AcDbEntity
8
0
100
AcDbCircle
10
-14.728388347648329
20
77.911611652351667
30
0
40
0.12499999999999474
210
-0
220
0
230
1
100
AcDbArc
50
-44.999999999995367
51
134.99999999999366
0
LINE
5
130
100
AcDbEntity
8
0
100
AcDbLine
10
-14.640000000000009
20
77.823223304703362
30
0
11
-14.640000000000008
21
70.176776695296653
31
0
0
ARC
5
131
100
AcDbEntity
8
0
100
AcDbCircle
10
-14.728388347648329
20
70.088388347648348
30
0
40
0.12500000000000464
210
0
220
0
230
1
100
AcDbArc
50
-134.99999999999253
51
44.99999999999482
0
LINE
5
132
100
AcDbEntity
8
0
100
AcDbLine
10
-14.816776695296639
20
70.000000000000014
30
0
11
-15.183223304703374
21
70.000000000000014
31
0
0
ARC
5
133
100
AcDbEntity
8
0
100
AcDbCircle
10
-15.271611652351691
20
70.088388347648333
30
0
40
0.12500000000000069
210
0
220
0
230
1
100
AcDbArc
50
134.99999999999943
51
314.99999999999943
0
LINE
5
134
100
AcDbEntity
8
0
100
AcDbLine
10
-15.360000000000008
20
70.176776695296653
30
0
11
-15.359999999999996
21
77.823223304703347
31
0
0
ARC
5
135
100
AcDbEntity
8
0
100
AcDbCircle
10
-27.271611652351698
20
77.911611652351738
30
0
40
0.12500000000000069
210
0
220
-0
230
1
100
AcDbArc
50
45.000000000001151
51
225.00000000000117
0
LINE
5
136
100
AcDbEntity
8
0
100
AcDbLine
10
-27.183223304703382
20
78.000000000000057
30
0
11
-26.816776695296653
21
78.000000000000057
31
0
0
ARC
5
137
100
AcDbEntity
8
0
100
AcDbCircle
10
-26.72838834764833
20
77.911611652351752
30
0
40
0.12500000000000069
210
-0
220
0
230
1
100
AcDbArc
50
-45.000000000001165
51
135.0000000000058
0
LINE
5
138
100
AcDbEntity
8
0
100
AcDbLine
10
-26.640000000000015
20
77.823223304703433
30
0
11
-26.640000000000015
21
70.176776695296709
31
0
0
ARC
5
139
100
AcDbEntity
8
0
100
AcDbCircle
10
-26.728388347648334
20
70.08838834764839
30
0
40
0.12499999999998883
210
0
220
0
230
1
100
AcDbArc
50
-134.99999999999773
51
45
0
LINE
5
140
100
AcDbEntity
8
0
100
AcDbLine
10
-26.816776695296646
20
70.000000000000071
30
0
11
-27.183223304703375
21
70.000000000000071
31
0
0
ARC
5
141
100
AcDbEntity
8
0
100
AcDbCircle
10
-27.271611652351698
20
70.08838834764839
30
0
40
0.12499999999999674
210
0
220
0
230
1
100
AcDbArc
50
134.99999999999773
51
315.00000000000119
0
LINE
5
142
100
AcDbEntity
8
0
100
AcDbLine
10
-27.36000000000001
20
70.176776695296709
30
0
11
-27.360000000000014
21
77.823223304703419
31
0
0
LWPOLYLINE
5
143
100
AcDbEntity
8
0
100
AcDbPolyline
90
8
70
1
43
0.0
10
-35.000000000000007
20
77.823223304703419
42
-0.99999999999999989
10
-34.823223304703376
20
78.000000000000057
10
-34.456776695296639
20
78.000000000000057
42
-0.99999999999999989
10
-34.280000000000008
20
77.823223304703419
10
-34.280000000000008
20
70.176776695296709
42
-0.99999999999999989
10
-34.456776695296639
20
70.000000000000071
10
-34.823223304703376
20
70.000000000000071
42
-0.99999999999999989
10
-35.000000000000007
20
70.176776695296709
0
LWPOLYLINE
5
144
100
AcDbEntity
8
0
100
AcDbPolyline
90
8
70
1
43
0.0
10
-37.999999429297254
20
77.823222133260884
42
-0.99999999999999989
10
-37.823222734000623
20
77.999998828557523
10
-37.456777265999399
20
77.999998828557523
42
-0.99999999999999989
10
-37.280000570702768
20
77.823222133260884
10
-37.280000570702768
20
70.176777866739243
42
-0.99999999999999989
10
-37.456777265999399
20
70.000001171442605
10
-37.823222734000623
20
70.000001171442605
42
-0.99999999999999989
10
-37.999999429297254
20
70.176777866739243
0
LWPOLYLINE
5
145
100
AcDbEntity
8
0
100
AcDbPolyline
90
8
70
1
43
0.0
10
-41.000000000000014
20
77.823223304703419
42
-0.99999999999999989
10
-40.823223304703383
20
78.000000000000057
10
-40.456776695296647
20
78.000000000000057
42
-0.99999999999999989
10
-40.280000000000015
20
77.823223304703419
10
-40.280000000000015
20
70.176776695296709
42
-0.99999999999999989
10
-40.456776695296647
20
70.000000000000071
10
-40.823223304703383
20
70.000000000000071
42
-0.99999999999999989
10
-41.000000000000014
20
70.176776695296709
0
ARC
5
146
100
AcDbEntity
8
0
100
AcDbCircle
10
-14.55161165235168
20
60.771611652351659
30
0
40
0.12499999999999674
210
0
220
-0
230
1
100
AcDbArc
50
45.000000000002878
51
225.00000000000517
0
LINE
5
147
100
AcDbEntity
8
0
100
AcDbLine
10
-14.463223304703369
20
60.859999999999978
30
0
11
-11.816776695296637
21
60.859999999999978
31
0
0
ARC
5
148
100
AcDbEntity
8
0
100
AcDbCircle
10
-11.728388347648325
20
60.771611652351659
30
0
40
0.12500000000000266
210
-0
220
0
230
1
100
AcDbArc
50
-45.000000000002288
51
134.99999999999773
0
LINE
5
149
100
AcDbEntity
8
0
100
AcDbLine
10
-11.640000000000006
20
60.683223304703333
30
0
11
-11.640000000000002
21
60.316776695296625
31
0
0
ARC
5
150
100
AcDbEntity
8
0
100
AcDbCircle
10
-11.728388347648321
20
60.228388347648298
30
0
40
0.1249999999999987
210
0
220
0
230
1
100
AcDbArc
50
-134.99999999999827
51
45.000000000002302
0
LINE
5
151
100
AcDbEntity
8
0
100
AcDbLine
10
-11.816776695296635
20
60.139999999999979
30
0
11
-14.463223304703368
21
60.139999999999979
31
0
0
ARC
5
152
100
AcDbEntity
8
0
100
AcDbCircle
10
-14.551611652351685
20
60.228388347648298
30
0
40
0.12500000000000069
210
0
220
0
230
1
100
AcDbArc
50
134.99999999999713
51
314.99999999999943
0
LINE
5
153
100
AcDbEntity
8
0
100
AcDbLine
10
-14.640000000000002
20
60.316776695296625
30
0
11
-14.63999999999999
21
60.683223304703333
31
0
0
ARC
5
154
100
AcDbEntity
8
0
100
AcDbCircle
10
-30.271611652351734
20
60.771611652351609
30
0
40
0.12500000000000464
210
0
220
-0
230
1
100
AcDbArc
50
45.000000000006906
51
225.00000000000574
0
LINE
5
155
100
AcDbEntity
8
0
100
AcDbLine
10
-30.183223304703422
20
60.859999999999943
30
0
11
-27.536776695296684
21
60.859999999999943
31
0
0
ARC
5
156
100
AcDbEntity
8
0
100
AcDbCircle
10
-27.448388347648368
20
60.771611652351638
30
0
40
0.12500000000000464
210
0
220
0
230
1
100
AcDbArc
50
-45.000000000002288
51
135.00000000000347
0
LINE
5
157
100
AcDbEntity
8
0
100
AcDbLine
10
-27.360000000000049
20
60.683223304703311
30
0
11
-27.36000000000006
21
60.31677669529661
31
0
0
ARC
5
158
100
AcDbEntity
8
0
100
AcDbCircle
10
-27.448388347648375
20
60.228388347648298
30
0
40
0.1250000000000086
210
0
220
0
230
1
100
AcDbArc
50
-134.99999999999426
51
44.999999999998849
0
LINE
5
159
100
AcDbEntity
8
0
100
AcDbLine
10
-27.536776695296691
20
60.139999999999965
30
0
11
-30.183223304703418
21
60.139999999999965
31
0
0
ARC
5
160
100
AcDbEntity
8
0
100
AcDbCircle
10
-30.271611652351744
20
60.228388347648277
30
0
40
0.12499999999999278
210
0
220
0
230
1
100
AcDbArc
50
134.99999999999542
51
315.0000000000046
0
LINE
5
161
100
AcDbEntity
8
0
100
AcDbLine
10
-30.360000000000049
20
60.316776695296596
30
0
11
-30.360000000000042
21
60.683223304703283
31
0
0
LWPOLYLINE
5
162
100
AcDbEntity
8
0
100
AcDbPolyline
90
8
70
1
43
0.0
10
-1.7199999999999951
20
50.823222538760199
42
-0.99999999999999989
10
-1.5432233047033699
20
50.999999234056844
10
-1.1767766952966427
20
50.999999234056844
42
-0.99999999999999989
10
-1.0000000000000038
20
50.823222538760199
10
-0.99999999999999889
20
43.176777461239745
42
-0.99999999999999989
10
-1.1767766952966419
20
43.00000076594312
10
-1.5432233047033659
20
43.000000765943113
42
-0.99999999999999989
10
-1.7200000000000037
20
43.176777461239752
0
ARC
5
163
100
AcDbEntity
8
0
100
AcDbCircle
10
-4.6316116523516815
20
50.911610886408525
30
0
40
0.1249999999999982
210
0
220
-0
230
1
100
AcDbArc
50
45.000000000002011
51
225.0000000000046
0
LINE
5
164
100
AcDbEntity
8
0
100
AcDbLine
10
-4.5432233047033685
20
50.999999234056844
30
0
11
-4.1767766952966365
21
50.999999234056844
31
0
0
ARC
5
165
100
AcDbEntity
8
0
100
AcDbCircle
10
-4.0883883476483227
20
50.911610886408525
30
0
40
0.12500000000000216
210
-0
220
0
230
1
100
AcDbArc
50
-45.000000000002601
51
134.99999999999827
0
LINE
5
166
100
AcDbEntity
8
0
100
AcDbLine
10
-4.0000000000000044
20
50.823222538760199
30
0
11
-4.0000000000000036
21
43.176777461239759
31
0
0
ARC
5
167
100
AcDbEntity
8
0
100
AcDbCircle
10
-4.0883883476483218
20
43.088389113591447
30
0
40
0.12500000000000314
210
0
220
0
230
1
100
AcDbArc
50
-134.99999999999773
51
44.999999999997982
0
LINE
5
168
100
AcDbEntity
8
0
100
AcDbLine
10
-4.176776695296641
20
43.00000076594312
30
0
11
-4.5432233047033623
21
43.00000076594312
31
0
0
ARC
5
169
100
AcDbEntity
8
0
100
AcDbCircle
10
-4.6316116523516824
20
43.088389113591447
30
0
40
0.12499999999999724
210
0
220
0
230
1
100
AcDbArc
50
135.00000000000173
51
314.99999999999801
0
LINE
5
170
100
AcDbEntity
8
0
100
AcDbLine
10
-4.7199999999999998
20
43.176777461239759
30
0
11
-4.7199999999999935
21
50.823222538760199
31
0
0
ARC
5
171
100
AcDbEntity
8
0
100
AcDbCircle
10
-7.6316116523516815
20
50.91161165235166
30
0
40
0.12499999999999772
210
0
220
-0
230
1
100
AcDbArc
50
45.000000000002302
51
225.00000000000227
0
LINE
5
172
100
AcDbEntity
8
0
100
AcDbLine
10
-7.5432233047033694
20
50.999999999999979
30
0
11
-7.1767766952966339
21
50.999999999999979
31
0
0
ARC
5
173
100
AcDbEntity
8
0
100
AcDbCircle
10
-7.0883883476483218
20
50.91161165235166
30
0
40
0.12500000000000364
210
-0
220
0
230
1
100
AcDbArc
50
-44.999999999999439
51
134.99999999999773
0
LINE
5
174
100
AcDbEntity
8
0
100
AcDbLine
10
-7.0000000000000009
20
50.82322330470334
30
0
11
-7
21
43.176776695296617
31
0
0
ARC
5
175
100
AcDbEntity
8
0
100
AcDbCircle
10
-7.0883883476483192
20
43.088388347648298
30
0
40
0.12499999999999674
210
0
220
0
230
1
100
AcDbArc
50
-135.00000000000287
51
45
0
LINE
5
176
100
AcDbEntity
8
0
100
AcDbLine
10
-7.1767766952966401
20
42.999999999999986
30
0
11
-7.5432233047033641
21
42.999999999999986
31
0
0
ARC
5
177
100
AcDbEntity
8
0
100
AcDbCircle
10
-7.6316116523516841
20
43.088388347648305
30
0
40
0.12499999999999573
210
0
220
0
230
1
100
AcDbArc
50
134.99999999999858
51
315.00000000000028
0
LINE
5
178
100
AcDbEntity
8
0
100
AcDbLine
10
-7.7199999999999989
20
43.176776695296624
30
0
11
-7.7199999999999935
21
50.82322330470334
31
0
0
ARC
5
179
100
AcDbEntity
8
0
100
AcDbCircle
10
-27.271611652351687
20
50.911611652351617
30
0
40
0.12500000000000069
210
0
220
-0
230
1
100
AcDbArc
50
45.000000000001151
51
225.00000000000344
0
LINE
5
180
100
AcDbEntity
8
0
100
AcDbLine
10
-27.183223304703372
20
50.999999999999936
30
0
11
-26.816776695296639
21
50.999999999999936
31
0
0
ARC
5
181
100
AcDbEntity
8
0
100
AcDbCircle
10
-26.72838834764833
20
50.911611652351617
30
0
40
0.12500000000000464
210
-0
220
0
230
1
100
AcDbArc
50
-45.000000000001165
51
134.99999999999656
0
LINE
5
182
100
AcDbEntity
8
0
100
AcDbLine
10
-26.640000000000008
20
50.823223304703291
30
0
11
-26.640000000000008
21
43.176776695296581
31
0
0
ARC
5
183
100
AcDbEntity
8
0
100
AcDbCircle
10
-26.728388347648313
20
43.088388347648255
30
0
40
0.12499999999999674
210
0
220
0
230
1
100
AcDbArc
50
-135.00000000000347
51
45.000000000006906
0
LINE
5
184
100
AcDbEntity
8
0
100
AcDbLine
10
-26.816776695296635
20
42.999999999999943
30
0
11
-27.183223304703365
21
42.999999999999943
31
0
0
ARC
5
185
100
AcDbEntity
8
0
100
AcDbCircle
10
-27.271611652351677
20
43.088388347648269
30
0
40
0.12500000000000069
210
0
220
0
230
1
100
AcDbArc
50
135.00000000000463
51
314.9999999999954
0
LINE
5
186
100
AcDbEntity
8
0
100
AcDbLine
10
-27.360000000000003
20
43.176776695296581
30
0
11
-27.360000000000003
21
50.823223304703291
31
0
0
ARC
5
187
100
AcDbEntity
8
0
100
AcDbCircle
10
-34.911611652351681
20
50.911611652351617
30
0
40
0.1250000000000086
210
0
220
-0
230
1
100
AcDbArc
50
45.000000000006906
51
225.0000000000046
0
LINE
5
188
100
AcDbEntity
8
0
100
AcDbLine
10
-34.823223304703369
20
50.99999999999995
30
0
11
-34.456776695296632
21
50.99999999999995
31
0
0
ARC
5
189
100
AcDbEntity
8
0
100
AcDbCircle
10
-34.368388347648313
20
50.911611652351617
30
0
40
0.12499999999999278
210
-0
220
0
230
1
100
AcDbArc
50
-45
51
134.99999999999542
0
LINE
5
190
100
AcDbEntity
8
0
100
AcDbLine
10
-34.280000000000001
20
50.823223304703305
30
0
11
-34.280000000000001
21
43.176776695296574
31
0
0
ARC
5
191
100
AcDbEntity
8
0
100
AcDbCircle
10
-34.36838834764832
20
43.088388347648262
30
0
40
0.12500000000000069
210
0
220
0
230
1
100
AcDbArc
50
-135
51
44.999999999997691
0
LINE
5
192
100
AcDbEntity
8
0
100
AcDbLine
10
-34.456776695296639
20
42.999999999999943
30
0
11
-34.823223304703362
21
42.999999999999943
31
0
0
ARC
5
193
100
AcDbEntity
8
0
100
AcDbCircle
10
-34.911611652351681
20
43.088388347648262
30
0
40
0.12500000000000069
210
0
220
0
230
1
100
AcDbArc
50
135.0000000000023
51
315
0
LINE
5
194
100
AcDbEntity
8
0
100
AcDbLine
10
-35
20
43.176776695296574
30
0
11
-35
21
50.823223304703284
31
0
0
LWPOLYLINE
5
195
100
AcDbEntity
8
0
100
AcDbPolyline
90
8
70
1
43
0.0
10
-37.999999429297233
20
50.823223304703291
42
-0.99999999999999989
10
-37.823222734000602
20
50.999999999999936
10
-37.456777265999399
20
50.999999999999936
42
-0.99999999999999989
10
-37.280000570702768
20
50.823223304703291
10
-37.280000570702775
20
43.176776695296596
42
-0.99999999999999989
10
-37.456777265999406
20
42.99999999999995
10
-37.823222734000588
20
42.999999999999957
42
-0.99999999999999989
10
-37.999999429297233
20
43.176776695296589
0
LWPOLYLINE
5
196
100
AcDbEntity
8
0
100
AcDbPolyline
90
8
70
1
43
0.0
10
-40.999999384241775
20
50.823223304703291
42
-0.99999999999999989
10
-40.823222688945144
20
50.999999999999936
10
-40.456777311054857
20
50.999999999999936
42
-0.99999999999999989
10
-40.280000615758226
20
50.823223304703291
10
-40.280000615758233
20
43.176776695296596
42
-0.99999999999999989
10
-40.456777311054864
20
42.99999999999995
10
-40.82322268894513
20
42.999999999999957
42
-0.99999999999999989
10
-40.999999384241775
20
43.176776695296589
0
LWPOLYLINE
5
197
100
AcDbEntity
8
0
100
AcDbPolyline
90
8
70
1
43
0.0
10
-30.359999999996596
20
33.683223004333271
42
-0.99999999999999989
10
-30.183223304699954
20
33.859999699629903
10
-27.536776695293227
20
33.85999969962991
42
-0.99999999999999989
10
-27.359999999996596
20
33.683223004333264
10
-27.359999999996589
20
33.316776394926535
42
-0.99999999999999989
10
-27.536776695293234
20
33.139999699629904
10
-30.183223304699965
20
33.139999699629904
42
-0.99999999999999989
10
-30.359999999996596
20
33.316776394926542
0
ARC
5
198
100
AcDbEntity
8
0
100
AcDbCircle
10
-14.551611652351665
20
33.771611351981811
30
0
40
0.12499999999999474
210
0
220
-0
230
1
100
AcDbArc
50
44.999999999998273
51
224.99999999999767
0
LINE
5
199
100
AcDbEntity
8
0
100
AcDbLine
10
-14.463223304703348
20
33.859999699630123
30
0
11
-11.816776695296626
21
33.859999699630123
31
0
0
ARC
5
200
100
AcDbEntity
8
0
100
AcDbCircle
10
-11.728388347648306
20
33.771611351981804
30
0
40
0.12499999999999674
210
0
220
0
230
1
100
AcDbArc
50
-44.99999999999654
51
135.0000000000006
0
LINE
5
201
100
AcDbEntity
8
0
100
AcDbLine
10
-11.639999999999983
20
33.683223004333492
30
0
11
-11.639999999999985
21
33.316776394926755
31
0
0
ARC
5
202
100
AcDbEntity
8
0
100
AcDbCircle
10
-11.728388347648304
20
33.228388047278443
30
0
40
0.12500000000000069
210
0
220
0
230
1
100
AcDbArc
50
-135.00000000000117
51
44.999999999997691
0
LINE
5
203
100
AcDbEntity
8
0
100
AcDbLine
10
-11.816776695296626
20
33.139999699630124
30
0
11
-14.463223304703344
21
33.139999699630124
31
0
0
ARC
5
204
100
AcDbEntity
8
0
100
AcDbCircle
10
-14.551611652351665
20
33.228388047278443
30
0
40
0.12499999999999674
210
0
220
0
230
1
100
AcDbArc
50
135.00000000000347
51
315.00000000000057
0
LINE
5
205
100
AcDbEntity
8
0
100
AcDbLine
10
-14.639999999999988
20
33.316776394926755
30
0
11
-14.639999999999985
21
33.683223004333499
31
0
0
LWPOLYLINE
5
206
100
AcDbEntity
8
0
100
AcDbPolyline
90
8
70
1
43
0.0
10
-1.7199999999999971
20
23.823223004333496
42
-0.99999999999999989
10
-1.5432233047033608
20
23.999999699630134
10
-1.1767766952966325
20
23.999999699630134
42
-0.99999999999999989
10
-0.99999999999999678
20
23.823223004333496
10
-0.99999999999999611
20
16.176776394926776
42
-0.99999999999999989
10
-1.176776695296633
20
15.999999699630136
10
-1.543223304703361
20
15.999999699630136
42
-0.99999999999999989
10
-1.7199999999999969
20
16.176776394926776
0
ARC
5
207
100
AcDbEntity
8
0
100
AcDbCircle
10
-4.631611652351677
20
23.911611291907843
30
0
40
0.12499999999999971
210
0
220
-0
230
1
100
AcDbArc
50
45.000000000000568
51
225.00000000000057
0
LINE
5
208
100
AcDbEntity
8
0
100
AcDbLine
10
-4.5432233047033597
20
23.999999639556162
30
0
11
-4.176776695296633
21
23.999999639556162
31
0
0
ARC
5
209
100
AcDbEntity
8
0
100
AcDbCircle
10
-4.0883883476483147
20
23.911611291907843
30
0
40
0.12499999999999921
210
-0
220
0
230
1
100
AcDbArc
50
-45.000000000000718
51
134.99999999999972
0
LINE
5
210
100
AcDbEntity
8
0
100
AcDbLine
10
-3.9999999999999978
20
23.823222944259523
30
0
11
-3.9999999999999982
21
16.176776455000745
31
0
0
ARC
5
211
100
AcDbEntity
8
0
100
AcDbCircle
10
-4.0883883476483147
20
16.088388107352426
30
0
40
0.12500000000000069
210
0
220
0
230
1
100
AcDbArc
50
-135.00000000000031
51
45.00000000000086
0
LINE
5
212
100
AcDbEntity
8
0
100
AcDbLine
10
-4.176776695296633
20
15.999999759704108
30
0
11
-4.5432233047033597
21
15.999999759704108
31
0
0
ARC
5
213
100
AcDbEntity
8
0
100
AcDbCircle
10
-4.631611652351677
20
16.088388107352426
30
0
40
0.12500000000000019
210
0
220
0
230
1
100
AcDbArc
50
135.00000000000173
51
315
0
LINE
5
214
100
AcDbEntity
8
0
100
AcDbLine
10
-4.719999999999998
20
16.176776455000741
30
0
11
-4.7199999999999944
21
23.823222944259523
31
0
0
ARC
5
215
100
AcDbEntity
8
0
100
AcDbCircle
10
-7.6316116523516788
20
23.911611351981815
30
0
40
0.12499999999999971
210
0
220
-0
230
1
100
AcDbArc
50
45.000000000000291
51
225.00000000000057
0
LINE
5
216
100
AcDbEntity
8
0
100
AcDbLine
10
-7.5432233047033606
20
23.999999699630134
30
0
11
-7.1767766952966303
21
23.999999699630134
31
0
0
ARC
5
217
100
AcDbEntity
8
0
100
AcDbCircle
10
-7.0883883476483129
20
23.911611351981815
30
0
40
0.12500000000000069
210
-0
220
0
230
1
100
AcDbArc
50
-45.000000000000306
51
134.99999999999943
0
LINE
5
218
100
AcDbEntity
8
0
100
AcDbLine
10
-6.9999999999999947
20
23.823223004333496
30
0
11
-6.9999999999999947
21
16.176776394926776
31
0
0
ARC
5
219
100
AcDbEntity
8
0
100
AcDbCircle
10
-7.0883883476483129
20
16.088388047278457
30
0
40
0.12499999999999971
210
0
220
0
230
1
100
AcDbArc
50
-134.99999999999886
51
45.000000000000291
0
LINE
5
220
100
AcDbEntity
8
0
100
AcDbLine
10
-7.1767766952966303
20
15.999999699630136
30
0
11
-7.5432233047033606
21
15.999999699630136
31
0
0
ARC
5
221
100
AcDbEntity
8
0
100
AcDbCircle
10
-7.6316116523516788
20
16.088388047278457
30
0
40
0.12500000000000069
210
0
220
0
230
1
100
AcDbArc
50
134.99999999999886
51
314.99999999999915
0
LINE
5
222
100
AcDbEntity
8
0
100
AcDbLine
10
-7.7199999999999944
20
16.176776394926776
30
0
11
-7.7199999999999962
21
23.823223004333496
31
0
0
LWPOLYLINE
5
223
100
AcDbEntity
8
0
100
AcDbPolyline
90
8
70
1
43
0.0
10
-15.359999999999994
20
23.823223004333496
42
-0.99999999999999989
10
-15.183223304703356
20
23.999999699630134
10
-14.816776695296637
20
23.999999699630134
42
-0.99999999999999989
10
-14.639999999999999
20
23.823223004333496
10
-14.639999999999993
20
16.176776394926772
42
-0.99999999999999989
10
-14.816776695296632
20
15.999999699630134
10
-15.183223304703361
20
15.999999699630134
42
-0.99999999999999989
10
-15.359999999999999
20
16.176776394926772
0
ARC
5
224
100
AcDbEntity
8
0
100
AcDbCircle
10
-27.271611652351705
20
23.911611351981591
30
0
40
0.12500000000000464
210
0
220
-0
230
1
100
AcDbArc
50
45
51
225.00000000000117
0
LINE
5
225
100
AcDbEntity
8
0
100
AcDbLine
10
-27.183223304703382
20
23.999999699629914
30
0
11
-26.816776695296646
21
23.99999969962991
31
0
0
ARC
5
226
100
AcDbEntity
8
0
100
AcDbCircle
10
-26.728388347648323
20
23.911611351981591
30
0
40
0.12499999999999474
210
-0
220
0
230
1
100
AcDbArc
50
-45.00000000000346
51
135.00000000000117
0
LINE
5
227
100
AcDbEntity
8
0
100
AcDbLine
10
-26.640000000000015
20
23.823223004333272
30
0
11
-26.640000000000015
21
16.176776394926552
31
0
0
ARC
5
228
100
AcDbEntity
8
0
100
AcDbCircle
10
-26.728388347648323
20
16.088388047278229
30
0
40
0.12500000000000464
210
0
220
0
230
1
100
AcDbArc
50
-135
51
45.000000000004604
0
LINE
5
229
100
AcDbEntity
8
0
100
AcDbLine
10
-26.816776695296646
20
15.999999699629907
30
0
11
-27.183223304703375
21
15.99999969962991
31
0
0
ARC
5
230
100
AcDbEntity
8
0
100
AcDbCircle
10
-27.271611652351691
20
16.088388047278233
30
0
40
0.12500000000000069
210
0
220
0
230
1
100
AcDbArc
50
135.0000000000023
51
314.99999999999773
0
LINE
5
231
100
AcDbEntity
8
0
100
AcDbLine
10
-27.360000000000014
20
16.176776394926549
30
0
11
-27.360000000000024
21
23.823223004333268
31
0
0
ARC
5
232
100
AcDbEntity
8
0
100
AcDbCircle
10
-34.911611126704429
20
23.911611291907843
30
0
40
0.12500000000000464
210
0
220
-0
230
1
100
AcDbArc
50
44.999999999998849
51
225.00000000000117
0
LINE
5
233
100
AcDbEntity
8
0
100
AcDbLine
10
-34.823222779056103
20
23.999999639556165
30
0
11
-34.45677722094392
21
23.999999639556162
31
0
0
ARC
5
234
100
AcDbEntity
8
0
100
AcDbCircle
10
-34.368388873295594
20
23.911611291907843
30
0
40
0.12499999999999474
210
-0
220
0
230
1
100
AcDbArc
50
-45.000000000002288
51
135.0000000000023
0
LINE
5
235
100
AcDbEntity
8
0
100
AcDbLine
10
-34.280000525647282
20
23.823222944259523
30
0
11
-34.280000525647282
21
16.176776455000301
31
0
0
ARC
5
236
100
AcDbEntity
8
0
100
AcDbCircle
10
-34.368388873295594
20
16.088388107351978
30
0
40
0.12500000000000464
210
0
220
0
230
1
100
AcDbArc
50
-135.00000000000173
51
45.00000000000346
0
LINE
5
237
100
AcDbEntity
8
0
100
AcDbLine
10
-34.45677722094392
20
15.999999759703657
30
0
11
-34.823222779056103
21
15.999999759703661
31
0
0
ARC
5
238
100
AcDbEntity
8
0
100
AcDbCircle
10
-34.911611126704429
20
16.088388107351978
30
0
40
0.12499999999999474
210
0
220
0
230
1
100
AcDbArc
50
134.99999999999542
51
315.0000000000029
0
LINE
5
239
100
AcDbEntity
8
0
100
AcDbLine
10
-34.999999474352734
20
16.176776455000297
30
0
11
-34.999999474352748
21
23.82322294425952
31
0
0
ARC
5
240
100
AcDbEntity
8
0
100
AcDbCircle
10
-37.911611081648942
20
23.911611291907843
30
0
40
0.12500000000000464
210
0
220
-0
230
1
100
AcDbArc
50
45.000000000001151
51
224.99999999999883
0
LINE
5
241
100
AcDbEntity
8
0
100
AcDbLine
10
-37.823222734000623
20
23.999999639556165
30
0
11
-37.456777265999399
21
23.999999639556162
31
0
0
ARC
5
242
100
AcDbEntity
8
0
100
AcDbCircle
10
-37.36838891835108
20
23.911611291907843
30
0
40
0.12499999999999474
210
-0
220
0
230
1
100
AcDbArc
50
-45.000000000002288
51
135
0
LINE
5
243
100
AcDbEntity
8
0
100
AcDbLine
10
-37.280000570702768
20
23.823222944259523
30
0
11
-37.280000570702768
21
16.176776455000301
31
0
0
ARC
5
244
100
AcDbEntity
8
0
100
AcDbCircle
10
-37.36838891835108
20
16.088388107351978
30
0
40
0.12500000000000464
210
0
220
0
230
1
100
AcDbArc
50
-134.99999999999943
51
45.00000000000346
0
LINE
5
245
100
AcDbEntity
8
0
100
AcDbLine
10
-37.456777265999399
20
15.999999759703657
30
0
11
-37.823222734000623
21
15.999999759703661
31
0
0
ARC
5
246
100
AcDbEntity
8
0
100
AcDbCircle
10
-37.911611081648942
20
16.088388107351978
30
0
40
0.12499999999999474
210
0
220
0
230
1
100
AcDbArc
50
134.99999999999773
51
315.00000000000057
0
LINE
5
247
100
AcDbEntity
8
0
100
AcDbLine
10
-37.999999429297254
20
16.176776455000297
30
0
11
-37.999999429297269
21
23.82322294425952
31
0
0
ARC
5
248
100
AcDbEntity
8
0
100
AcDbCircle
10
-40.911611652351702
20
23.911611351981591
30
0
40
0.12500000000000464
210
0
220
-0
230
1
100
AcDbArc
50
45.000000000001151
51
225.00000000000117
0
LINE
5
249
100
AcDbEntity
8
0
100
AcDbLine
10
-40.823223304703383
20
23.999999699629914
30
0
11
-40.456776695296647
21
23.99999969962991
31
0
0
ARC
5
250
100
AcDbEntity
8
0
100
AcDbCircle
10
-40.36838834764832
20
23.911611351981591
30
0
40
0.12499999999999474
210
-0
220
0
230
1
100
AcDbArc
50
-45.000000000004633
51
135.0000000000023
0
LINE
5
251
100
AcDbEntity
8
0
100
AcDbLine
10
-40.280000000000015
20
23.823223004333272
30
0
11
-40.280000000000015
21
16.176776394926552
31
0
0
ARC
5
252
100
AcDbEntity
8
0
100
AcDbCircle
10
-40.36838834764832
20
16.088388047278233
30
0
40
0.12500000000000464
210
0
220
0
230
1
100
AcDbArc
50
-135.00000000000117
51
45.000000000004604
0
LINE
5
253
100
AcDbEntity
8
0
100
AcDbLine
10
-40.456776695296647
20
15.99999969962991
30
0
11
-40.823223304703383
21
15.999999699629912
31
0
0
ARC
5
254
100
AcDbEntity
8
0
100
AcDbCircle
10
-40.911611652351702
20
16.088388047278233
30
0
40
0.12499999999999474
210
0
220
0
230
1
100
AcDbArc
50
134.99999999999773
51
314.99999999999943
0
LINE
5
255
100
AcDbEntity
8
0
100
AcDbLine
10
-41.000000000000014
20
16.176776394926552
30
0
11
-41.000000000000021
21
23.823223004333268
31
0
0
ARC
5
256
100
AcDbEntity
8
0
100
AcDbCircle
10
-30.27161165233694
20
6.7716113519830792
30
0
40
0.12499999999999674
210
0
220
-0
230
1
100
AcDbArc
50
45.000000000003162
51
225.00000000000315
0
LINE
5
257
100
AcDbEntity
8
0
100
AcDbLine
10
-30.183223304688628
20
6.859999699631401
30
0
11
-27.536776695281894
21
6.859999699631401
31
0
0
ARC
5
258
100
AcDbEntity
8
0
100
AcDbCircle
10
-27.448388347633575
20
6.7716113519830792
30
0
40
0.12499999999999968
210
-0
220
0
230
1
100
AcDbArc
50
-45.000000000001421
51
134.99999999999918
0
LINE
5
259
100
AcDbEntity
8
0
100
AcDbLine
10
-27.359999999985259
20
6.6832230043347591
30
0
11
-27.359999999985259
21
6.316776394928036
31
0
0
ARC
5
260
100
AcDbEntity
8
0
100
AcDbCircle
10
-27.448388347633575
20
6.2283880472797177
30
0
40
0.12500000000000117
210
0
220
0
230
1
100
AcDbArc
50
-135.00000000000173
51
45.00000000000086
0
LINE
5
261
100
AcDbEntity
8
0
100
AcDbLine
10
-27.536776695281898
20
6.1399996996314004
30
0
11
-30.183223304688624
21
6.1399996996314004
31
0
0
ARC
5
262
100
AcDbEntity
8
0
100
AcDbCircle
10
-30.271611652336947
20
6.228388047279716
30
0
40
0.12500000000000019
210
0
220
0
230
1
100
AcDbArc
50
134.99999999999426
51
315.00000000000227
0
LINE
5
263
100
AcDbEntity
8
0
100
AcDbLine
10
-30.359999999985256
20
6.3167763949280422
30
0
11
-30.359999999985252
21
6.6832230043347574
31
0
0
ARC
5
264
100
AcDbEntity
8
0
100
AcDbCircle
10
-14.551611652351674
20
6.7716113519818091
30
0
40
0.12500000000000069
210
0
220
-0
230
1
100
AcDbArc
50
45
51
225
0
LINE
5
265
100
AcDbEntity
8
0
100
AcDbLine
10
-14.463223304703355
20
6.8599996996301282
30
0
11
-11.816776695296628
21
6.8599996996301282
31
0
0
ARC
5
266
100
AcDbEntity
8
0
100
AcDbCircle
10
-11.728388347648311
20
6.7716113519818091
30
0
40
0.12499999999999971
210
-0
220
0
230
1
100
AcDbArc
50
-45.000000000000561
51
134.99999999999943
0
LINE
5
267
100
AcDbEntity
8
0
100
AcDbLine
10
-11.639999999999993
20
6.6832230043334899
30
0
11
-11.639999999999993
21
6.3167763949267659
31
0
0
ARC
5
268
100
AcDbEntity
8
0
100
AcDbCircle
10
-11.728388347648311
20
6.2283880472784459
30
0
40
0.12500000000000019
210
0
220
0
230
1
100
AcDbArc
50
-135.00000000000031
51
45.00000000000086
0
LINE
5
269
100
AcDbEntity
8
0
100
AcDbLine
10
-11.81677669529663
20
6.1399996996301276
30
0
11
-14.463223304703355
21
6.1399996996301276
31
0
0
ARC
5
270
100
AcDbEntity
8
0
100
AcDbCircle
10
-14.551611652351674
20
6.2283880472784467
30
0
40
0.12499999999999968
210
0
220
0
230
1
100
AcDbArc
50
135.00000000000259
51
315
0
LINE
5
271
100
AcDbEntity
8
0
100
AcDbLine
10
-14.639999999999997
20
6.3167763949267615
30
0
11
-14.639999999999993
21
6.6832230043334899
31
0
0
ARC
5
272
100
AcDbEntity
8
0
100
AcDbCircle
10
-15.271611652351684
20
43.088388347648298
30
0
40
0.12500000000000464
210
0
220
0
230
1
100
AcDbArc
50
135.0000000000006
51
314.99999999999881
0
LINE
5
273
100
AcDbEntity
8
0
100
AcDbLine
10
-15.360000000000005
20
43.176776695296617
30
0
11
-15.360000000000003
21
50.82322330470334
31
0
0
ARC
5
274
100
AcDbEntity
8
0
100
AcDbCircle
10
-15.27161165235168
20
50.91161165235166
30
0
40
0.12499999999999674
210
0
220
-0
230
1
100
AcDbArc
50
45.000000000002878
51
224.99999999999883
0
LINE
5
275
100
AcDbEntity
8
0
100
AcDbLine
10
-15.18322330470337
20
50.999999999999979
30
0
11
-14.816776695296637
21
50.999999999999979
31
0
0
ARC
5
276
100
AcDbEntity
8
0
100
AcDbCircle
10
-14.728388347648323
20
50.91161165235166
30
0
40
0.12500000000000266
210
-0
220
0
230
1
100
AcDbArc
50
-45
51
134.99999999999827
0
LINE
5
277
100
AcDbEntity
8
0
100
AcDbLine
10
-14.640000000000004
20
50.82322330470334
30
0
11
-14.640000000000002
21
43.176776695296617
31
0
0
ARC
5
278
100
AcDbEntity
8
0
100
AcDbCircle
10
-14.728388347648321
20
43.088388347648298
30
0
40
0.12499999999999474
210
0
220
0
230
1
100
AcDbArc
50
-135.00000000000173
51
45
0
LINE
5
279
100
AcDbEntity
8
0
100
AcDbLine
10
-14.816776695296639
20
42.999999999999986
30
0
11
-15.183223304703361
21
42.999999999999972
31
0
0
ENDSEC
0
SECTION
2
OBJECTS
0
DICTIONARY
5
C
100
AcDbDictionary
3
ACAD_GROUP
350
D
3
ACAD_MLINESTYLE
350
17
0
DICTIONARY
5
D
100
AcDbDictionary
0
DICTIONARY
5
1A
330
C
100
AcDbDictionary
0
DICTIONARY
5
17
100
AcDbDictionary
0
ENDSEC
0
EOF
