0
SECTION
2
HEADER
9
$INSUNITS
70
1
9
$ACADVER
1
AC1014
9
$HANDSEED
5
FFFF
0
ENDSEC
0
SECTION
2
TABLES
0
TABLE
2
VPORT
5
8
100
AcDbSymbolTable
0
ENDTAB
0
TABLE
2
LTYPE
5
5
100
AcDbSymbolTable
0
LTYPE
5
14
100
AcDbSymbolTableRecord
100
AcDbLinetypeTableRecord
2
BYBLOCK
70
0
0
LTYPE
5
15
100
AcDbSymbolTableRecord
100
AcDbLinetypeTableRecord
2
BYLAYER
70
0
0
ENDTAB
0
TABLE
2
LAYER
5
2
100
AcDbSymbolTable
70
2
0
LAYER
5
50
100
AcDbSymbolTableRecord
100
AcDbLayerTableRecord
2
0
70
0
6
CONTINUOUS
0
ENDTAB
0
TABLE
2
STYLE
5
3
100
AcDbSymbolTable
70
1
0
STYLE
5
11
100
AcDbSymbolTableRecord
100
AcDbTextStyleTableRecord
2
STANDARD
70
0
0
ENDTAB
0
TABLE
2
VIEW
5
6
100
AcDbSymbolTable
70
0
0
ENDTAB
0
TABLE
2
UCS
5
7
100
AcDbSymbolTable
70
0
0
ENDTAB
0
TABLE
2
APPID
5
9
100
AcDbSymbolTable
70
2
0
APPID
5
12
100
AcDbSymbolTableRecord
100
AcDbRegAppTableRecord
2
ACAD
70
0
0
ENDTAB
0
TABLE
2
DIMSTYLE
5
A
100
AcDbSymbolTable
70
1
0
ENDTAB
0
TABLE
2
BLOCK_RECORD
5
1
100
AcDbSymbolTable
70
1
0
BLOCK_RECORD
5
1F
100
AcDbSymbolTableRecord
100
AcDbBlockTableRecord
2
*MODEL_SPACE
0
BLOCK_RECORD
5
1B
100
AcDbSymbolTableRecord
100
AcDbBlockTableRecord
2
*PAPER_SPACE
0
ENDTAB
0
ENDSEC
0
SECTION
2
BLOCKS
0
BLOCK
5
20
100
AcDbEntity
100
AcDbBlockBegin
2
*MODEL_SPACE
0
ENDBLK
5
21
100
AcDbEntity
100
AcDbBlockEnd
0
BLOCK
5
1C
100
AcDbEntity
100
AcDbBlockBegin
2
*PAPER_SPACE
0
ENDBLK
5
1D
100
AcDbEntity
100
AcDbBlockEnd
0
ENDSEC
0
SECTION
2
ENTITIES
0
ARC
5
100
100
AcDbEntity
8
0
100
AcDbCircle
10
-26.728388347648323
20
15.911611412055789
30
0
40
0.1249999999999987
210
0
220
0
230
1
100
AcDbArc
50
-44.999999999998273
51
135.00000000000287
0
LINE
5
101
100
AcDbEntity
8
0
100
AcDbLine
10
-26.640000000000004
20
15.823223064407475
30
0
11
-26.640000000000004
21
-2.2379298764097642e-14
31
0
0
LINE
5
102
100
AcDbEntity
8
0
100
AcDbLine
10
-26.640000000000004
20
-2.2379298764097642e-14
30
0
11
-15.360000000000003
21
-1.6784474073073231e-14
31
0
0
LINE
5
103
100
AcDbEntity
8
0
100
AcDbLine
10
-15.360000000000003
20
-1.6784474073073231e-14
30
0
11
-15.360000000000003
21
15.82322306440747
31
0
0
ARC
5
104
100
AcDbEntity
8
0
100
AcDbCircle
10
-15.271611652351684
20
15.911611412055789
30
0
40
0.12500000000000069
210
0
220
-0
230
1
100
AcDbArc
50
45
51
225
0
LINE
5
105
100
AcDbEntity
8
0
100
AcDbLine
10
-15.183223304703365
20
15.999999759704108
30
0
11
-14.640000000000002
21
15.999999759704108
31
0
0
LINE
5
106
100
AcDbEntity
8
0
100
AcDbLine
10
-14.640000000000002
20
15.999999759704108
30
0
11
-14.640000000000002
21
23.999999639556162
31
0
0
LINE
5
107
100
AcDbEntity
8
0
100
AcDbLine
10
-14.640000000000002
20
23.999999639556162
30
0
11
-15.183223304703365
21
23.999999639556162
31
0
0
ARC
5
108
100
AcDbEntity
8
0
100
AcDbCircle
10
-15.271611652351684
20
24.088387987204481
30
0
40
0.12500000000000069
210
0
220
0
230
1
100
AcDbArc
50
135
51
315
0
LINE
5
109
100
AcDbEntity
8
0
100
AcDbLine
10
-15.360000000000003
20
24.1767763348528
30
0
11
-15.360000000000003
21
42.823222658908151
31
0
0
ARC
5
110
100
AcDbEntity
8
0
100
AcDbCircle
10
-15.271611652351684
20
42.91161100655647
30
0
40
0.1249999999999987
210
0
220
-0
230
1
100
AcDbArc
50
45.00000000000172
51
225
0
LINE
5
111
100
AcDbEntity
8
0
100
AcDbLine
10
-15.18322330470337
20
42.999999354204789
30
0
11
-14.640000000000002
21
42.999999354204789
31
0
0
LINE
5
112
100
AcDbEntity
8
0
100
AcDbLine
10
-14.640000000000002
20
42.999999354204789
30
0
11
-14.640000000000002
21
50.999999234056844
31
0
0
LINE
5
113
100
AcDbEntity
8
0
100
AcDbLine
10
-14.640000000000002
20
50.999999234056844
30
0
11
-15.183223304703366
21
50.999999234056844
31
0
0
ARC
5
114
100
AcDbEntity
8
0
100
AcDbCircle
10
-15.271611652351686
20
51.088387581705163
30
0
40
0.12500000000000069
210
0
220
0
230
1
100
AcDbArc
50
134.99999999999713
51
315
0
LINE
5
115
100
AcDbEntity
8
0
100
AcDbLine
10
-15.360000000000003
20
51.176775929353489
30
0
11
-15.360000000000003
21
69.823222253408829
31
0
0
ARC
5
116
100
AcDbEntity
8
0
100
AcDbCircle
10
-15.27161165235168
20
69.911610601057149
30
0
40
0.12499999999999674
210
0
220
-0
230
1
100
AcDbArc
50
45.000000000002878
51
224.99999999999883
0
LINE
5
117
100
AcDbEntity
8
0
100
AcDbLine
10
-15.18322330470337
20
69.999998948705468
30
0
11
-14.640000000000002
21
69.999998948705468
31
0
0
LINE
5
118
100
AcDbEntity
8
0
100
AcDbLine
10
-14.640000000000002
20
69.999998948705468
30
0
11
-14.640000000000002
21
77.999998828557523
31
0
0
LINE
5
119
100
AcDbEntity
8
0
100
AcDbLine
10
-14.640000000000002
20
77.999998828557523
30
0
11
-15.183223304703366
21
77.999998828557523
31
0
0
ARC
5
120
100
AcDbEntity
8
0
100
AcDbCircle
10
-15.271611652351686
20
78.088387176205842
30
0
40
0.12500000000000069
210
0
220
0
230
1
100
AcDbArc
50
134.99999999999483
51
315
0
LINE
5
121
100
AcDbEntity
8
0
100
AcDbLine
10
-15.360000000000003
20
78.176775523854175
30
0
11
-15.360000000000003
21
93.999999999999986
31
0
0
LINE
5
122
100
AcDbEntity
8
0
100
AcDbLine
10
-15.360000000000003
20
93.999999999999986
30
0
11
-26.640000000000004
21
93.999999999999986
31
0
0
LINE
5
123
100
AcDbEntity
8
0
100
AcDbLine
10
-26.640000000000004
20
93.999999999999986
30
0
11
-26.640000000000004
21
78.176775523854161
31
0
0
ARC
5
124
100
AcDbEntity
8
0
100
AcDbCircle
10
-26.728388347648323
20
78.088387176205842
30
0
40
0.12499999999999674
210
0
220
0
230
1
100
AcDbArc
50
-134.99999999999773
51
45
0
LINE
5
125
100
AcDbEntity
8
0
100
AcDbLine
10
-26.816776695296635
20
77.999998828557523
30
0
11
-27.360000000000003
21
77.999998828557523
31
0
0
LINE
5
126
100
AcDbEntity
8
0
100
AcDbLine
10
-27.360000000000003
20
77.999998828557523
30
0
11
-27.360000000000003
21
69.999998948705468
31
0
0
LINE
5
127
100
AcDbEntity
8
0
100
AcDbLine
10
-27.360000000000003
20
69.999998948705468
30
0
11
-26.816776695296639
21
69.999998948705468
31
0
0
ARC
5
128
100
AcDbEntity
8
0
100
AcDbCircle
10
-26.728388347648323
20
69.911610601057149
30
0
40
0.12499999999999674
210
0
220
0
230
1
100
AcDbArc
50
-44.999999999995367
51
134.99999999999886
0
LINE
5
129
100
AcDbEntity
8
0
100
AcDbLine
10
-26.640000000000004
20
69.823222253408844
30
0
11
-26.640000000000004
21
51.176775929353475
31
0
0
ARC
5
130
100
AcDbEntity
8
0
100
AcDbCircle
10
-26.728388347648323
20
51.088387581705163
30
0
40
0.12499999999999674
210
0
220
0
230
1
100
AcDbArc
50
-134.99999999999773
51
44.999999999997691
0
LINE
5
131
100
AcDbEntity
8
0
100
AcDbLine
10
-26.816776695296635
20
50.999999234056844
30
0
11
-27.360000000000003
21
50.999999234056844
31
0
0
LINE
5
132
100
AcDbEntity
8
0
100
AcDbLine
10
-27.360000000000003
20
50.999999234056844
30
0
11
-27.360000000000003
21
42.999999354204789
31
0
0
LINE
5
133
100
AcDbEntity
8
0
100
AcDbLine
10
-27.360000000000003
20
42.999999354204789
30
0
11
-26.816776695296639
21
42.999999354204789
31
0
0
ARC
5
134
100
AcDbEntity
8
0
100
AcDbCircle
10
-26.72838834764833
20
42.911611006556463
30
0
40
0.12500000000000069
210
0
220
0
230
1
100
AcDbArc
50
-44.999999999995367
51
134.99999999999426
0
LINE
5
135
100
AcDbEntity
8
0
100
AcDbLine
10
-26.640000000000004
20
42.823222658908151
30
0
11
-26.640000000000004
21
24.176776334852796
31
0
0
ARC
5
136
100
AcDbEntity
8
0
100
AcDbCircle
10
-26.728388347648323
20
24.088387987204481
30
0
40
0.12500000000000069
210
0
220
0
230
1
100
AcDbArc
50
-134.99999999999773
51
44.999999999998849
0
LINE
5
137
100
AcDbEntity
8
0
100
AcDbLine
10
-26.816776695296639
20
23.999999639556158
30
0
11
-27.360000000000003
21
23.999999639556162
31
0
0
LINE
5
138
100
AcDbEntity
8
0
100
AcDbLine
10
-27.360000000000003
20
23.999999639556162
30
0
11
-27.360000000000003
21
15.999999759704108
31
0
0
LINE
5
139
100
AcDbEntity
8
0
100
AcDbLine
10
-27.360000000000003
20
15.999999759704108
30
0
11
-26.816776695296646
21
15.999999759704103
31
0
0
ENDSEC
0
SECTION
2
OBJECTS
0
DICTIONARY
5
C
100
AcDbDictionary
3
ACAD_GROUP
350
D
3
ACAD_MLINESTYLE
350
17
0
DICTIONARY
5
D
100
AcDbDictionary
0
DICTIONARY
5
1A
330
C
100
AcDbDictionary
0
DICTIONARY
5
17
100
AcDbDictionary
0
ENDSEC
0
EOF
