0
SECTION
2
HEADER
9
$INSUNITS
70
1
9
$ACADVER
1
AC1014
9
$HANDSEED
5
FFFF
0
ENDSEC
0
SECTION
2
TABLES
0
TABLE
2
VPORT
5
8
100
AcDbSymbolTable
0
ENDTAB
0
TABLE
2
LTYPE
5
5
100
AcDbSymbolTable
0
LTYPE
5
14
100
AcDbSymbolTableRecord
100
AcDbLinetypeTableRecord
2
BYBLOCK
70
0
0
LTYPE
5
15
100
AcDbSymbolTableRecord
100
AcDbLinetypeTableRecord
2
BYLAYER
70
0
0
ENDTAB
0
TABLE
2
LAYER
5
2
100
AcDbSymbolTable
70
2
0
LAYER
5
50
100
AcDbSymbolTableRecord
100
AcDbLayerTableRecord
2
0
70
0
6
CONTINUOUS
0
ENDTAB
0
TABLE
2
STYLE
5
3
100
AcDbSymbolTable
70
1
0
STYLE
5
11
100
AcDbSymbolTableRecord
100
AcDbTextStyleTableRecord
2
STANDARD
70
0
0
ENDTAB
0
TABLE
2
VIEW
5
6
100
AcDbSymbolTable
70
0
0
ENDTAB
0
TABLE
2
UCS
5
7
100
AcDbSymbolTable
70
0
0
ENDTAB
0
TABLE
2
APPID
5
9
100
AcDbSymbolTable
70
2
0
APPID
5
12
100
AcDbSymbolTableRecord
100
AcDbRegAppTableRecord
2
ACAD
70
0
0
ENDTAB
0
TABLE
2
DIMSTYLE
5
A
100
AcDbSymbolTable
70
1
0
ENDTAB
0
TABLE
2
BLOCK_RECORD
5
1
100
AcDbSymbolTable
70
1
0
BLOCK_RECORD
5
1F
100
AcDbSymbolTableRecord
100
AcDbBlockTableRecord
2
*MODEL_SPACE
0
BLOCK_RECORD
5
1B
100
AcDbSymbolTableRecord
100
AcDbBlockTableRecord
2
*PAPER_SPACE
0
ENDTAB
0
ENDSEC
0
SECTION
2
BLOCKS
0
BLOCK
5
20
100
AcDbEntity
100
AcDbBlockBegin
2
*MODEL_SPACE
0
ENDBLK
5
21
100
AcDbEntity
100
AcDbBlockEnd
0
BLOCK
5
1C
100
AcDbEntity
100
AcDbBlockBegin
2
*PAPER_SPACE
0
ENDBLK
5
1D
100
AcDbEntity
100
AcDbBlockEnd
0
ENDSEC
0
SECTION
2
ENTITIES
0
LWPOLYLINE
5
100
100
AcDbEntity
8
0
100
AcDbPolyline
90
6
70
1
43
0.0
10
-6.0000000000000027
20
9.9999998498150671
10
-42
20
9.9999998498150671
42
0.41421354771037899
10
-45
20
7
42
0.41421356237309509
10
-42
20
3.9999999999999996
10
-6.0000000000000036
20
3.9999999999999996
42
0.41421354771037905
10
-3.0000000000000004
20
6.9999998498150671
42
0.41421356237309526
0
LWPOLYLINE
5
101
100
AcDbEntity
8
0
100
AcDbPolyline
90
4
70
1
43
0.0
10
-51.999999999999993
20
9.9999999999999982
10
-87.999999999999986
20
9.9999999999999982
42
0.99999999999999989
10
-87.999999999999986
20
3.9999999999999991
10
-51.999999999999993
20
3.9999999999999982
42
0.99999999999999989
0
ARC
5
102
100
AcDbEntity
8
0
100
AcDbCircle
10
-6.7716115021667429
20
34.088387837019546
30
0
40
0.12499999999999968
210
0
220
0
230
1
100
AcDbArc
50
135.00000000000463
51
315.00000000000432
0
LINE
5
103
100
AcDbEntity
8
0
100
AcDbLine
10
-6.8599998498150692
20
34.176776184667858
30
0
11
-6.8599998498150674
21
37.82322273400063
31
0
0
ARC
5
104
100
AcDbEntity
8
0
100
AcDbCircle
10
-6.771611502166742
20
37.911611081648942
30
0
40
0.12499999999999968
210
0
220
-0
230
1
100
AcDbArc
50
44.999999999997115
51
224.99999999999568
0
LINE
5
105
100
AcDbEntity
8
0
100
AcDbLine
10
-6.6832231545184211
20
37.999999429297254
30
0
11
-6.3167765451117006
21
37.999999429297254
31
0
0
ARC
5
106
100
AcDbEntity
8
0
100
AcDbCircle
10
-6.2283881974633797
20
37.911611081648942
30
0
40
0.12500000000000216
210
0
220
0
230
1
100
AcDbArc
50
-45.000000000000306
51
135.00000000000287
0
LINE
5
107
100
AcDbEntity
8
0
100
AcDbLine
10
-6.1399998498150614
20
37.823222734000623
30
0
11
-6.1399998498150614
21
34.176776184667858
31
0
0
ARC
5
108
100
AcDbEntity
8
0
100
AcDbCircle
10
-6.2283881974633797
20
34.088387837019539
30
0
40
0.12499999999999674
210
0
220
0
230
1
100
AcDbArc
50
-135.00000000000287
51
45.000000000000291
0
LINE
5
109
100
AcDbEntity
8
0
100
AcDbLine
10
-6.3167765451117006
20
33.999999489371227
30
0
11
-6.6832231545184175
21
33.999999489371234
31
0
0
LWPOLYLINE
5
110
100
AcDbEntity
8
0
100
AcDbPolyline
90
8
70
1
43
0.0
10
-6.6832231545184229
20
18.000000000000004
42
-0.99999999999999989
10
-6.8599998498150665
20
18.176776695296631
10
-6.8599998498150621
20
21.823223304703355
42
-0.99999999999999989
10
-6.6832231545184246
20
21.999999999999996
10
-6.3167765451116979
20
21.999999999999996
42
-0.99999999999999989
10
-6.1399998498150623
20
21.823223304703358
10
-6.1399998498150614
20
18.176776695296635
42
-0.99999999999999989
10
-6.3167765451116979
20
17.999999999999996
0
LWPOLYLINE
5
111
100
AcDbEntity
8
0
100
AcDbPolyline
90
8
70
1
43
0.0
10
-23.823223004333496
20
12.97333333333334
42
-0.99999999999999989
10
-23.999999699630138
20
13.150110028629967
10
-23.999999699630138
20
13.51655663803669
42
-0.99999999999999989
10
-23.823223004333499
20
13.693333333333333
10
-16.176776394926762
20
13.693333333333339
42
-0.99999999999999989
10
-15.999999699630143
20
13.51655663803669
10
-15.999999699630131
20
13.150110028629976
42
-0.99999999999999989
10
-16.176776394926776
20
12.973333333333333
0
LWPOLYLINE
5
112
100
AcDbEntity
8
0
100
AcDbPolyline
90
8
70
1
43
0.0
10
-23.823223004333489
20
26.306999999999995
42
-0.99999999999999989
10
-23.999999699630138
20
26.483776695296626
10
-23.999999699630138
20
26.85022330470337
42
-0.99999999999999989
10
-23.823223004333496
20
27.02699999999999
10
-16.176776394926776
20
27.026999999999983
42
-0.99999999999999989
10
-15.999999699630139
20
26.850223304703352
10
-15.999999699630136
20
26.483776695296633
42
-0.99999999999999989
10
-16.176776394926776
20
26.306999999999992
0
LWPOLYLINE
5
113
100
AcDbEntity
8
0
100
AcDbPolyline
90
8
70
1
43
0.0
10
-33.683223154518423
20
18.000000000000004
42
-0.99999999999999989
10
-33.859999849815068
20
18.176776695296631
10
-33.859999849815061
20
21.823223304703355
42
-0.99999999999999989
10
-33.68322315451843
20
22
10
-33.316776545111686
20
22.000000000000004
42
-0.99999999999999989
10
-33.139999849815062
20
21.823223304703355
10
-33.139999849815069
20
18.176776695296645
42
-0.99999999999999989
10
-33.316776545111694
20
17.999999999999996
0
ARC
5
114
100
AcDbEntity
8
0
100
AcDbCircle
10
-33.771611502166749
20
34.088387806982567
30
0
40
0.12499999999999278
210
0
220
0
230
1
100
AcDbArc
50
135.0000000000023
51
315.00000000000227
0
LINE
5
115
100
AcDbEntity
8
0
100
AcDbLine
10
-33.859999849815068
20
34.176776154630879
30
0
11
-33.859999849815068
21
37.82322276403761
31
0
0
ARC
5
116
100
AcDbEntity
8
0
100
AcDbCircle
10
-33.771611502166749
20
37.911611111685929
30
0
40
0.12500000000000464
210
0
220
-0
230
1
100
AcDbArc
50
44.999999999995396
51
225
0
LINE
5
117
100
AcDbEntity
8
0
100
AcDbLine
10
-33.683223154518423
20
37.999999459334241
30
0
11
-33.316776545111694
21
37.999999459334241
31
0
0
ARC
5
118
100
AcDbEntity
8
0
100
AcDbCircle
10
-33.228388197463374
20
37.911611111685929
30
0
40
0.12500000000000069
210
-0
220
0
230
1
100
AcDbArc
50
-45.000000000006921
51
135.0000000000023
0
LINE
5
119
100
AcDbEntity
8
0
100
AcDbLine
10
-33.139999849815062
20
37.823222764037595
30
0
11
-33.139999849815062
21
34.176776154630886
31
0
0
ARC
5
120
100
AcDbEntity
8
0
100
AcDbCircle
10
-33.228388197463374
20
34.08838780698256
30
0
40
0.12500000000000069
210
0
220
0
230
1
100
AcDbArc
50
-135
51
45.000000000004604
0
LINE
5
121
100
AcDbEntity
8
0
100
AcDbLine
10
-33.316776545111694
20
33.999999459334241
30
0
11
-33.68322315451843
21
33.999999459334255
31
0
0
ARC
5
122
100
AcDbEntity
8
0
100
AcDbCircle
10
-50.91161165235166
20
13.06138834764832
30
0
40
0.12499999999999674
210
0
220
0
230
1
100
AcDbArc
50
135.00000000000287
51
315.0000000000029
0
LINE
5
123
100
AcDbEntity
8
0
100
AcDbLine
10
-50.999999999999979
20
13.14977669529663
30
0
11
-50.999999999999979
21
13.516223304703363
31
0
0
ARC
5
124
100
AcDbEntity
8
0
100
AcDbCircle
10
-50.91161165235166
20
13.604611652351682
30
0
40
0.12500000000000069
210
0
220
-0
230
1
100
AcDbArc
50
44.999999999999424
51
225
0
LINE
5
125
100
AcDbEntity
8
0
100
AcDbLine
10
-50.82322330470334
20
13.693
30
0
11
-43.176776695296617
21
13.693
31
0
0
ARC
5
126
100
AcDbEntity
8
0
100
AcDbCircle
10
-43.088388347648298
20
13.60461165235168
30
0
40
0.12499999999999474
210
-0
220
0
230
1
100
AcDbArc
50
-45.000000000002288
51
135
0
LINE
5
127
100
AcDbEntity
8
0
100
AcDbLine
10
-42.999999999999986
20
13.516223304703361
30
0
11
-42.999999999999986
21
13.149776695296639
31
0
0
ARC
5
128
100
AcDbEntity
8
0
100
AcDbCircle
10
-43.088388347648298
20
13.061388347648318
30
0
40
0.12500000000000464
210
0
220
0
230
1
100
AcDbArc
50
-134.99999999999886
51
45.000000000002878
0
LINE
5
129
100
AcDbEntity
8
0
100
AcDbLine
10
-43.176776695296617
20
12.972999999999995
30
0
11
-50.82322330470334
21
12.97300000000001
31
0
0
ARC
5
130
100
AcDbEntity
8
0
100
AcDbCircle
10
-50.91161165235166
20
26.395388347648318
30
0
40
0.12499999999999674
210
0
220
0
230
1
100
AcDbArc
50
135.00000000000347
51
315.00000000000227
0
LINE
5
131
100
AcDbEntity
8
0
100
AcDbLine
10
-50.999999999999979
20
26.483776695296626
30
0
11
-50.999999999999979
21
26.850223304703363
31
0
0
ARC
5
132
100
AcDbEntity
8
0
100
AcDbCircle
10
-50.91161165235166
20
26.938611652351675
30
0
40
0.12500000000000464
210
0
220
-0
230
1
100
AcDbArc
50
45.000000000001151
51
224.99999999999767
0
LINE
5
133
100
AcDbEntity
8
0
100
AcDbLine
10
-50.82322330470334
20
27.026999999999997
30
0
11
-43.176776695296624
21
27.026999999999997
31
0
0
ARC
5
134
100
AcDbEntity
8
0
100
AcDbCircle
10
-43.088388347648305
20
26.938611652351678
30
0
40
0.12500000000000464
210
-0
220
0
230
1
100
AcDbArc
50
-45
51
135
0
LINE
5
135
100
AcDbEntity
8
0
100
AcDbLine
10
-42.999999999999986
20
26.850223304703359
30
0
11
-42.999999999999986
21
26.483776695296633
31
0
0
ARC
5
136
100
AcDbEntity
8
0
100
AcDbCircle
10
-43.088388347648305
20
26.395388347648311
30
0
40
0.12499999999999674
210
0
220
0
230
1
100
AcDbArc
50
-135.00000000000117
51
45.000000000001151
0
LINE
5
137
100
AcDbEntity
8
0
100
AcDbLine
10
-43.176776695296624
20
26.306999999999995
30
0
11
-50.82322330470334
21
26.307000000000006
31
0
0
LWPOLYLINE
5
138
100
AcDbEntity
8
0
100
AcDbPolyline
90
8
70
1
43
0.0
10
-60.683223304703361
20
33.999999489371227
42
-0.99999999999999989
10
-60.859999999999999
20
34.176776184667858
10
-60.859999999999999
20
37.823222734000623
42
-0.99999999999999989
10
-60.683223304703361
20
37.999999429297254
10
-60.316776695296646
20
37.999999429297254
42
-0.99999999999999989
10
-60.140000000000001
20
37.823222734000623
10
-60.140000000000001
20
34.176776184667858
42
-0.99999999999999989
10
-60.316776695296646
20
33.999999489371227
0
ARC
5
139
100
AcDbEntity
8
0
100
AcDbCircle
10
-60.77161165235168
20
18.088388347648319
30
0
40
0.12499999999999674
210
0
220
0
230
1
100
AcDbArc
50
135.0000000000023
51
315.00000000000347
0
LINE
5
140
100
AcDbEntity
8
0
100
AcDbLine
10
-60.859999999999999
20
18.176776695296631
30
0
11
-60.859999999999999
21
21.823223304703362
31
0
0
ARC
5
141
100
AcDbEntity
8
0
100
AcDbCircle
10
-60.77161165235168
20
21.911611652351681
30
0
40
0.12500000000000069
210
0
220
-0
230
1
100
AcDbArc
50
44.999999999998849
51
225
0
LINE
5
142
100
AcDbEntity
8
0
100
AcDbLine
10
-60.683223304703361
20
21.999999999999996
30
0
11
-60.316776695296646
21
21.999999999999996
31
0
0
ARC
5
143
100
AcDbEntity
8
0
100
AcDbCircle
10
-60.22838834764832
20
21.911611652351674
30
0
40
0.12499999999999674
210
0
220
0
230
1
100
AcDbArc
50
-44.99999999999654
51
135.00000000000117
0
LINE
5
144
100
AcDbEntity
8
0
100
AcDbLine
10
-60.140000000000001
20
21.823223304703365
30
0
11
-60.140000000000001
21
18.176776695296635
31
0
0
ARC
5
145
100
AcDbEntity
8
0
100
AcDbCircle
10
-60.22838834764832
20
18.088388347648319
30
0
40
0.12500000000000266
210
0
220
0
230
1
100
AcDbArc
50
-135.0000000000023
51
44.999999999998849
0
LINE
5
146
100
AcDbEntity
8
0
100
AcDbLine
10
-60.316776695296646
20
18
30
0
11
-60.683223304703361
21
18.000000000000011
31
0
0
ARC
5
147
100
AcDbEntity
8
0
100
AcDbCircle
10
-77.911610480909204
20
13.06138834764832
30
0
40
0.12499999999999674
210
0
220
0
230
1
100
AcDbArc
50
135.00000000000287
51
315.0000000000029
0
LINE
5
148
100
AcDbEntity
8
0
100
AcDbLine
10
-77.999998828557523
20
13.14977669529663
30
0
11
-77.999998828557523
21
13.516223304703363
31
0
0
ARC
5
149
100
AcDbEntity
8
0
100
AcDbCircle
10
-77.911610480909204
20
13.604611652351682
30
0
40
0.12500000000000069
210
0
220
-0
230
1
100
AcDbArc
50
44.999999999999424
51
225
0
LINE
5
150
100
AcDbEntity
8
0
100
AcDbLine
10
-77.823222133260884
20
13.693
30
0
11
-70.176776695296653
21
13.693
31
0
0
ARC
5
151
100
AcDbEntity
8
0
100
AcDbCircle
10
-70.088388347648333
20
13.604611652351682
30
0
40
0.12500000000000069
210
-0
220
0
230
1
100
AcDbArc
50
-45.000000000002288
51
135.0000000000006
0
LINE
5
152
100
AcDbEntity
8
0
100
AcDbLine
10
-70.000000000000014
20
13.516223304703356
30
0
11
-70.000000000000014
21
13.149776695296644
31
0
0
ARC
5
153
100
AcDbEntity
8
0
100
AcDbCircle
10
-70.088388347648333
20
13.061388347648318
30
0
40
0.12500000000000266
210
0
220
0
230
1
100
AcDbArc
50
-135
51
45.000000000002302
0
LINE
5
154
100
AcDbEntity
8
0
100
AcDbLine
10
-70.176776695296653
20
12.972999999999999
30
0
11
-77.823222133260884
21
12.97300000000001
31
0
0
ARC
5
155
100
AcDbEntity
8
0
100
AcDbCircle
10
-77.911611652351652
20
26.395388347648318
30
0
40
0.12499999999999674
210
0
220
0
230
1
100
AcDbArc
50
135.00000000000347
51
315.00000000000227
0
LINE
5
156
100
AcDbEntity
8
0
100
AcDbLine
10
-77.999999999999972
20
26.483776695296626
30
0
11
-77.999999999999972
21
26.850223304703363
31
0
0
ARC
5
157
100
AcDbEntity
8
0
100
AcDbCircle
10
-77.911611652351652
20
26.938611652351675
30
0
40
0.12500000000000464
210
0
220
-0
230
1
100
AcDbArc
50
45.000000000001151
51
224.99999999999767
0
LINE
5
158
100
AcDbEntity
8
0
100
AcDbLine
10
-77.823223304703333
20
27.026999999999997
30
0
11
-70.176776695296624
21
27.026999999999997
31
0
0
ARC
5
159
100
AcDbEntity
8
0
100
AcDbCircle
10
-70.088388347648305
20
26.938611652351675
30
0
40
0.12499999999999674
210
0
220
0
230
1
100
AcDbArc
50
-44.999999999993079
51
134.99999999999886
0
LINE
5
160
100
AcDbEntity
8
0
100
AcDbLine
10
-69.999999999999972
20
26.850223304703363
30
0
11
-69.999999999999972
21
26.483776695296626
31
0
0
ARC
5
161
100
AcDbEntity
8
0
100
AcDbCircle
10
-70.088388347648305
20
26.395388347648318
30
0
40
0.12500000000000464
210
0
220
0
230
1
100
AcDbArc
50
-134.99999999999886
51
44.999999999991928
0
LINE
5
162
100
AcDbEntity
8
0
100
AcDbLine
10
-70.176776695296624
20
26.306999999999995
30
0
11
-77.823223304703333
21
26.307000000000006
31
0
0
ARC
5
163
100
AcDbEntity
8
0
100
AcDbCircle
10
-87.771611652351666
20
18.088388077315443
30
0
40
0.12499999999999674
210
0
220
0
230
1
100
AcDbArc
50
135.00000000000693
51
315.00000000000227
0
LINE
5
164
100
AcDbEntity
8
0
100
AcDbLine
10
-87.859999999999999
20
18.176776424963755
30
0
11
-87.859999999999999
21
21.823223575036238
31
0
0
ARC
5
165
100
AcDbEntity
8
0
100
AcDbCircle
10
-87.771611652351666
20
21.911611922684557
30
0
40
0.12500000000000069
210
0
220
-0
230
1
100
AcDbArc
50
44.999999999998849
51
224.99999999999537
0
LINE
5
166
100
AcDbEntity
8
0
100
AcDbLine
10
-87.683223304703347
20
22.000000270332873
30
0
11
-87.316776695296639
21
22.000000270332873
31
0
0
ARC
5
167
100
AcDbEntity
8
0
100
AcDbCircle
10
-87.22838834764832
20
21.91161192268455
30
0
40
0.12499999999999674
210
0
220
0
230
1
100
AcDbArc
50
-44.999999999991907
51
134.99999999999886
0
LINE
5
168
100
AcDbEntity
8
0
100
AcDbLine
10
-87.139999999999986
20
21.823223575036241
30
0
11
-87.139999999999986
21
18.176776424963755
31
0
0
ARC
5
169
100
AcDbEntity
8
0
100
AcDbCircle
10
-87.22838834764832
20
18.088388077315443
30
0
40
0.12500000000000266
210
0
220
0
230
1
100
AcDbArc
50
-135
51
44.999999999993086
0
LINE
5
170
100
AcDbEntity
8
0
100
AcDbLine
10
-87.316776695296639
20
17.999999729667124
30
0
11
-87.683223304703347
21
17.999999729667131
31
0
0
LWPOLYLINE
5
171
100
AcDbEntity
8
0
100
AcDbPolyline
90
8
70
1
43
0.0
10
-87.683223304703347
20
33.999999489371227
42
-0.99999999999999989
10
-87.859999999999999
20
34.176776184667858
10
-87.859999999999999
20
37.823222734000623
42
-0.99999999999999989
10
-87.683223304703347
20
37.999999429297254
10
-87.316776695296639
20
37.999999429297254
42
-0.99999999999999989
10
-87.139999999999986
20
37.823222734000623
10
-87.139999999999986
20
34.176776184667858
42
-0.99999999999999989
10
-87.316776695296639
20
33.999999489371227
0
ARC
5
172
100
AcDbEntity
8
0
100
AcDbCircle
10
-78.088387176205842
20
40.088388347648319
30
0
40
0.12500000000000069
210
0
220
0
230
1
100
AcDbArc
50
-134.99999999999542
51
45.000000000006906
0
LINE
5
173
100
AcDbEntity
8
0
100
AcDbLine
10
-78.176775523854161
20
39.999999999999986
30
0
11
-93.999999999999986
21
39.999999999999993
31
0
0
LINE
5
174
100
AcDbEntity
8
0
100
AcDbLine
10
-93.999999999999986
20
39.999999999999993
30
0
11
-93.999999999999986
21
0
31
0
0
LINE
5
175
100
AcDbEntity
8
0
100
AcDbLine
10
-93.999999999999986
20
0
30
0
11
-78.176776695296653
21
0
31
0
0
ARC
5
176
100
AcDbEntity
8
0
100
AcDbCircle
10
-78.088388347648333
20
-0.088388347648320778
30
0
40
0.12500000000000591
210
0
220
0
230
1
100
AcDbArc
50
-44.999999999993179
51
134.99999999999946
0
LINE
5
177
100
AcDbEntity
8
0
100
AcDbLine
10
-78
20
-0.17677669529663312
30
0
11
-78
21
-0.71999999999999997
31
0
0
LINE
5
178
100
AcDbEntity
8
0
100
AcDbLine
10
-78
20
-0.71999999999999997
30
0
11
-70.000000000000014
21
-0.71999999999999997
31
0
0
LINE
5
179
100
AcDbEntity
8
0
100
AcDbLine
10
-70.000000000000014
20
-0.71999999999999997
30
0
11
-70.000000000000014
21
-0.17677669529663409
31
0
0
ARC
5
180
100
AcDbEntity
8
0
100
AcDbCircle
10
-69.911611652351681
20
-0.088388347648321472
30
0
40
0.1249999999999952
210
0
220
-0
230
1
100
AcDbArc
50
45.000000000000135
51
224.99999999999326
0
LINE
5
181
100
AcDbEntity
8
0
100
AcDbLine
10
-69.823223304703362
20
-1.8795114196410129e-15
30
0
11
-51.176776695296624
21
0
31
0
0
ARC
5
182
100
AcDbEntity
8
0
100
AcDbCircle
10
-51.088388347648305
20
-0.088388347648320778
30
0
40
0.124999999999998
210
0
220
0
230
1
100
AcDbArc
50
-44.999999999995467
51
134.99999999999946
0
LINE
5
183
100
AcDbEntity
8
0
100
AcDbLine
10
-50.999999999999979
20
-0.17677669529663312
30
0
11
-50.999999999999979
21
-0.71999999999999997
31
0
0
LINE
5
184
100
AcDbEntity
8
0
100
AcDbLine
10
-50.999999999999979
20
-0.71999999999999997
30
0
11
-42.999999999999986
21
-0.71999999999999997
31
0
0
LINE
5
185
100
AcDbEntity
8
0
100
AcDbLine
10
-42.999999999999986
20
-0.71999999999999997
30
0
11
-42.999999999999986
21
-0.17677669529663409
31
0
0
ARC
5
186
100
AcDbEntity
8
0
100
AcDbCircle
10
-42.91161165235166
20
-0.088388347648319709
30
0
40
0.1249999999999999
210
0
220
-0
230
1
100
AcDbArc
50
45.000000000002778
51
224.99999999999613
0
LINE
5
187
100
AcDbEntity
8
0
100
AcDbLine
10
-42.823223304703347
20
9.0697353389653523e-16
30
0
11
-24.176776394926772
21
0
31
0
0
ARC
5
188
100
AcDbEntity
8
0
100
AcDbCircle
10
-24.088388047278453
20
-0.088388347648318336
30
0
40
0.12500000000000028
210
-0
220
0
230
1
100
AcDbArc
50
-44.999999999999751
51
135.00000000000028
0
LINE
5
189
100
AcDbEntity
8
0
100
AcDbLine
10
-23.999999699630134
20
-0.17677669529663667
30
0
11
-23.999999699630134
21
-0.71999999999999997
31
0
0
LINE
5
190
100
AcDbEntity
8
0
100
AcDbLine
10
-23.999999699630134
20
-0.71999999999999997
30
0
11
-15.999999699630134
21
-0.71999999999999997
31
0
0
LINE
5
191
100
AcDbEntity
8
0
100
AcDbLine
10
-15.999999699630134
20
-0.71999999999999997
30
0
11
-15.999999699630134
21
-0.17677669529663689
31
0
0
ARC
5
192
100
AcDbEntity
8
0
100
AcDbCircle
10
-15.911611351981815
20
-0.088388347648318502
30
0
40
0.125
210
0
220
-0
230
1
100
AcDbArc
50
44.999999999999623
51
224.99999999999974
0
LINE
5
193
100
AcDbEntity
8
0
100
AcDbLine
10
-15.823223004333496
20
-5.1358742280888145e-16
30
0
11
2.2379298764097642e-14
21
0
31
0
0
LINE
5
194
100
AcDbEntity
8
0
100
AcDbLine
10
2.2379298764097642e-14
20
0
30
0
11
2.2379298764097642e-14
21
39.999999999999993
31
0
0
LINE
5
195
100
AcDbEntity
8
0
100
AcDbLine
10
2.2379298764097642e-14
20
39.999999999999993
30
0
11
-15.823223004333501
21
39.999999999999993
31
0
0
ARC
5
196
100
AcDbEntity
8
0
100
AcDbCircle
10
-15.911611351981817
20
40.088388347648319
30
0
40
0.12500000000000069
210
0
220
0
230
1
100
AcDbArc
50
135.00000000000347
51
314.99999999999653
0
LINE
5
197
100
AcDbEntity
8
0
100
AcDbLine
10
-15.999999699630139
20
40.176776695296631
30
0
11
-15.999999699630136
21
40.719999999999992
31
0
0
LINE
5
198
100
AcDbEntity
8
0
100
AcDbLine
10
-15.999999699630136
20
40.719999999999992
30
0
11
-23.999999699630138
21
40.719999999999992
31
0
0
LINE
5
199
100
AcDbEntity
8
0
100
AcDbLine
10
-23.999999699630138
20
40.719999999999992
30
0
11
-23.999999699630138
21
40.176776695296631
31
0
0
ARC
5
200
100
AcDbEntity
8
0
100
AcDbCircle
10
-24.088388047278453
20
40.088388347648319
30
0
40
0.1249999999999987
210
0
220
0
230
1
100
AcDbArc
50
-134.99999999999656
51
44.999999999998849
0
LINE
5
201
100
AcDbEntity
8
0
100
AcDbLine
10
-24.176776394926769
20
39.999999999999993
30
0
11
-42.823223304703347
21
39.999999999999993
31
0
0
ARC
5
202
100
AcDbEntity
8
0
100
AcDbCircle
10
-42.91161165235166
20
40.088388347648319
30
0
40
0.12500000000000069
210
0
220
0
230
1
100
AcDbArc
50
135.00000000000463
51
314.9999999999954
0
LINE
5
203
100
AcDbEntity
8
0
100
AcDbLine
10
-42.999999999999986
20
40.176776695296631
30
0
11
-42.999999999999986
21
40.719999999999992
31
0
0
LINE
5
204
100
AcDbEntity
8
0
100
AcDbLine
10
-42.999999999999986
20
40.719999999999992
30
0
11
-50.999999999999979
21
40.719999999999992
31
0
0
LINE
5
205
100
AcDbEntity
8
0
100
AcDbLine
10
-50.999999999999979
20
40.719999999999992
30
0
11
-50.999999999999979
21
40.176776695296631
31
0
0
ARC
5
206
100
AcDbEntity
8
0
100
AcDbCircle
10
-51.088388347648305
20
40.088388347648319
30
0
40
0.12500000000000069
210
0
220
0
230
1
100
AcDbArc
50
-134.99999999999309
51
44.999999999995396
0
LINE
5
207
100
AcDbEntity
8
0
100
AcDbLine
10
-51.176776695296617
20
39.999999999999986
30
0
11
-69.823223304703376
21
39.999999999999993
31
0
0
ARC
5
208
100
AcDbEntity
8
0
100
AcDbCircle
10
-69.911611652351695
20
40.088388347648319
30
0
40
0.12499999999998883
210
0
220
0
230
1
100
AcDbArc
50
135.00000000000463
51
314.99999999999773
0
LINE
5
209
100
AcDbEntity
8
0
100
AcDbLine
10
-70.000000000000014
20
40.176776695296624
30
0
11
-70.000000000000014
21
40.719999999999992
31
0
0
LINE
5
210
100
AcDbEntity
8
0
100
AcDbLine
10
-70.000000000000014
20
40.719999999999992
30
0
11
-77.999998828557523
21
40.719999999999992
31
0
0
LINE
5
211
100
AcDbEntity
8
0
100
AcDbLine
10
-77.999998828557523
20
40.719999999999992
30
0
11
-77.999998828557537
21
40.176776695296645
31
0
0
ENDSEC
0
SECTION
2
OBJECTS
0
DICTIONARY
5
C
100
AcDbDictionary
3
ACAD_GROUP
350
D
3
ACAD_MLINESTYLE
350
17
0
DICTIONARY
5
D
100
AcDbDictionary
0
DICTIONARY
5
1A
330
C
100
AcDbDictionary
0
DICTIONARY
5
17
100
AcDbDictionary
0
ENDSEC
0
EOF
