0
SECTION
2
HEADER
9
$INSUNITS
70
1
9
$ACADVER
1
AC1014
9
$HANDSEED
5
FFFF
0
ENDSEC
0
SECTION
2
TABLES
0
TABLE
2
VPORT
5
8
100
AcDbSymbolTable
0
ENDTAB
0
TABLE
2
LTYPE
5
5
100
AcDbSymbolTable
0
LTYPE
5
14
100
AcDbSymbolTableRecord
100
AcDbLinetypeTableRecord
2
BYBLOCK
70
0
0
LTYPE
5
15
100
AcDbSymbolTableRecord
100
AcDbLinetypeTableRecord
2
BYLAYER
70
0
0
ENDTAB
0
TABLE
2
LAYER
5
2
100
AcDbSymbolTable
70
2
0
LAYER
5
50
100
AcDbSymbolTableRecord
100
AcDbLayerTableRecord
2
0
70
0
6
CONTINUOUS
0
ENDTAB
0
TABLE
2
STYLE
5
3
100
AcDbSymbolTable
70
1
0
STYLE
5
11
100
AcDbSymbolTableRecord
100
AcDbTextStyleTableRecord
2
STANDARD
70
0
0
ENDTAB
0
TABLE
2
VIEW
5
6
100
AcDbSymbolTable
70
0
0
ENDTAB
0
TABLE
2
UCS
5
7
100
AcDbSymbolTable
70
0
0
ENDTAB
0
TABLE
2
APPID
5
9
100
AcDbSymbolTable
70
2
0
APPID
5
12
100
AcDbSymbolTableRecord
100
AcDbRegAppTableRecord
2
ACAD
70
0
0
ENDTAB
0
TABLE
2
DIMSTYLE
5
A
100
AcDbSymbolTable
70
1
0
ENDTAB
0
TABLE
2
BLOCK_RECORD
5
1
100
AcDbSymbolTable
70
1
0
BLOCK_RECORD
5
1F
100
AcDbSymbolTableRecord
100
AcDbBlockTableRecord
2
*MODEL_SPACE
0
BLOCK_RECORD
5
1B
100
AcDbSymbolTableRecord
100
AcDbBlockTableRecord
2
*PAPER_SPACE
0
ENDTAB
0
ENDSEC
0
SECTION
2
BLOCKS
0
BLOCK
5
20
100
AcDbEntity
100
AcDbBlockBegin
2
*MODEL_SPACE
0
ENDBLK
5
21
100
AcDbEntity
100
AcDbBlockEnd
0
BLOCK
5
1C
100
AcDbEntity
100
AcDbBlockBegin
2
*PAPER_SPACE
0
ENDBLK
5
1D
100
AcDbEntity
100
AcDbBlockEnd
0
ENDSEC
0
SECTION
2
ENTITIES
0
LWPOLYLINE
5
100
100
AcDbEntity
8
0
100
AcDbPolyline
90
4
70
1
43
0.0
10
-17.5
20
6.499999999999976
42
-0.99999999999999989
10
-24.5
20
6.4999999999999734
10
-24.500000000000004
20
41.499999999999972
42
-0.99999999999999989
10
-17.500000000000004
20
41.499999999999972
0
LWPOLYLINE
5
101
100
AcDbEntity
8
0
100
AcDbPolyline
90
4
70
1
43
0.0
10
-24.499999999999996
20
87.499998588261633
10
-24.5
20
52.499998588261619
42
0.99999999999999989
10
-17.500000000000004
20
52.499998588261619
10
-17.500000000000004
20
87.499998588261619
42
0.99999999999999989
0
LWPOLYLINE
5
102
100
AcDbEntity
8
0
100
AcDbPolyline
90
40
70
1
43
0.0
10
-15.183223304703361
20
69.999998948705468
42
-0.99999999999999989
10
-15.359999999999999
20
70.17677564400212
10
-15.359999999999991
20
77.823222133260884
42
-0.99999999999999989
10
-15.18322330470337
20
77.999998828557523
10
-14.640000000000002
20
77.999998828557523
10
-14.640000000000002
20
93.999998588261633
10
-27.360000000000003
20
93.999998588261633
10
-27.360000000000003
20
77.999998828557523
10
-26.816776695296635
20
77.999998828557523
42
-0.99999999999999989
10
-26.640000000000004
20
77.823222133260884
10
-26.640000000000004
20
70.17677564400212
42
-0.99999999999999989
10
-26.816776695296635
20
69.999998948705468
10
-27.360000000000003
20
69.999998948705468
10
-27.360000000000003
20
50.999999234056844
10
-26.816776695296635
20
50.999999234056844
42
-0.99999999999999989
10
-26.640000000000004
20
50.823222538760199
10
-26.640000000000008
20
43.176776049501434
42
-0.99999999999999989
10
-26.816776695296639
20
42.999999354204789
10
-27.360000000000003
20
42.999999354204789
10
-27.360000000000003
20
23.999999639556162
10
-26.816776695296625
20
23.999999639556162
42
-0.99999999999999989
10
-26.640000000000004
20
23.823222944259523
10
-26.63999999999999
20
16.176776455000748
42
-0.99999999999999989
10
-26.816776695296635
20
15.999999759704105
10
-27.360000000000003
20
15.999999759704108
10
-27.360000000000003
20
-2.2379298764097642e-14
10
-14.640000000000002
20
-2.2379298764097642e-14
10
-14.640000000000002
20
15.999999759704108
10
-15.183223304703365
20
15.999999759704108
42
-0.99999999999999989
10
-15.360000000000003
20
16.176776455000745
10
-15.360000000000003
20
23.823222944259523
42
-0.99999999999999989
10
-15.183223304703365
20
23.999999639556162
10
-14.640000000000002
20
23.999999639556162
10
-14.640000000000002
20
42.999999354204789
10
-15.183223304703361
20
42.999999354204782
42
-0.99999999999999989
10
-15.360000000000005
20
43.17677604950142
10
-15.359999999999991
20
50.823222253408836
42
-0.99999999999999989
10
-15.18322330470337
20
50.999998948705475
10
-14.640000000000002
20
50.999998948705475
10
-14.640000000000002
20
69.999998948705468
0
ENDSEC
0
SECTION
2
OBJECTS
0
DICTIONARY
5
C
100
AcDbDictionary
3
ACAD_GROUP
350
D
3
ACAD_MLINESTYLE
350
17
0
DICTIONARY
5
D
100
AcDbDictionary
0
DICTIONARY
5
1A
330
C
100
AcDbDictionary
0
DICTIONARY
5
17
100
AcDbDictionary
0
ENDSEC
0
EOF
